name rise49.25peak52.1432fall72.8391.mot
datacolumns 19
datarows 23
range 11.46995200000000 11.50661900000000
endheader
time	ground_force1_vx	ground_force1_vy	ground_force1_vz	ground_force1_px	ground_force1_py	ground_force1_pz	ground_force2_vx	ground_force2_vy	ground_force2_vz	ground_force2_px	ground_force2_py	ground_force2_pz	ground_torque1_x	ground_torque1_y	ground_torque1_z	ground_torque2_x	ground_torque2_y	ground_torque2_z	
11.46995200000000	-39.72057600000000	797.74332900000002	49.49821300000000	0.11725800000000	0.00000000000000	0.09775000000000	-4.52928700000000	44.55737000000000	6.01991400000000	0.35004300000000	0.00000000000000	-0.08039000000000	0.00000000000000	19.87209900000000	0.00000000000000	0.00000000000000	4.18358900000000	0.00000000000000	
11.47162000000000	-40.21276300000000	796.76094699999999	49.47114400000000	0.11652200000000	0.00000000000000	0.09768800000000	-4.92265500000000	50.72119500000000	6.71611800000000	0.35410200000000	0.00000000000000	-0.08029800000000	0.00000000000000	19.82929500000000	0.00000000000000	0.00000000000000	4.70685300000000	0.00000000000000	
11.47329700000000	-40.72268100000000	795.68411500000002	49.42789400000000	0.11579000000000	0.00000000000000	0.09762300000000	-5.24257400000000	56.76591100000000	7.35912700000000	0.35777900000000	0.00000000000000	-0.08023100000000	0.00000000000000	19.78713800000000	0.00000000000000	0.00000000000000	5.19903400000000	0.00000000000000	
11.47495200000000	-41.25076600000000	794.51047600000004	49.36791000000000	0.11506100000000	0.00000000000000	0.09755600000000	-5.48147000000000	62.62694700000000	7.93910700000000	0.36111500000000	0.00000000000000	-0.08018800000000	0.00000000000000	19.74567200000000	0.00000000000000	0.00000000000000	5.65238000000000	0.00000000000000	
11.47662100000000	-41.79739200000000	793.23766300000000	49.29065700000000	0.11433500000000	0.00000000000000	0.09748700000000	-5.63576100000000	68.26539200000001	8.45044100000000	0.36414200000000	0.00000000000000	-0.08016600000000	0.00000000000000	19.70493000000000	0.00000000000000	0.00000000000000	6.06212200000000	0.00000000000000	
11.47829400000000	-42.36286400000000	791.86330699999996	49.19562400000000	0.11361200000000	0.00000000000000	0.09741500000000	-5.70554700000000	73.66724400000000	8.89149900000000	0.36688900000000	0.00000000000000	-0.08016300000000	0.00000000000000	19.66493900000000	0.00000000000000	0.00000000000000	6.42637400000000	0.00000000000000	
11.47996700000000	-42.94741500000000	790.38503300000002	49.08231900000000	0.11288900000000	0.00000000000000	0.09734100000000	-5.69404800000000	78.84074300000000	9.26412600000000	0.36938100000000	0.00000000000000	-0.08017800000000	0.00000000000000	19.62571700000000	0.00000000000000	0.00000000000000	6.74581700000000	0.00000000000000	
11.48161700000000	-43.55120300000000	788.80046400000003	48.95028100000000	0.11216700000000	0.00000000000000	0.09726500000000	-5.60689200000000	83.81232400000000	9.57292000000000	0.37164100000000	0.00000000000000	-0.08021000000000	0.00000000000000	19.58727400000000	0.00000000000000	0.00000000000000	7.02321200000000	0.00000000000000	
11.48328400000000	-44.17430800000000	787.10722099999998	48.79907200000000	0.11144400000000	0.00000000000000	0.09718700000000	-5.45132200000000	88.62178200000000	9.82442500000000	0.37368600000000	0.00000000000000	-0.08025800000000	0.00000000000000	19.54961200000000	0.00000000000000	0.00000000000000	7.26283900000000	0.00000000000000	
11.48495600000000	-44.81672800000000	785.30292399999996	48.62828600000000	0.11072000000000	0.00000000000000	0.09710600000000	-5.23541600000000	93.31717700000000	10.02628700000000	0.37553500000000	0.00000000000000	-0.08032000000000	0.00000000000000	19.51272700000000	0.00000000000000	0.00000000000000	7.46989100000000	0.00000000000000	
11.48662600000000	-45.47837500000000	783.38519699999995	48.43754600000000	0.10999400000000	0.00000000000000	0.09702400000000	-4.96737400000000	97.94994000000000	10.18648200000000	0.37720300000000	0.00000000000000	-0.08039600000000	0.00000000000000	19.47660300000000	0.00000000000000	0.00000000000000	7.64991400000000	0.00000000000000	
11.48829000000000	-46.15907600000000	781.35166600000002	48.22651000000000	0.10926500000000	0.00000000000000	0.09693900000000	-4.65491700000000	102.57054200000000	10.31263800000000	0.37870300000000	0.00000000000000	-0.08048400000000	0.00000000000000	19.44121900000000	0.00000000000000	0.00000000000000	7.80829800000000	0.00000000000000	
11.48995400000000	-46.85856600000000	779.19996400000002	47.99486900000000	0.10853300000000	0.00000000000000	0.09685200000000	-4.30483300000000	107.22496300000000	10.41150700000000	0.38004900000000	0.00000000000000	-0.08058500000000	0.00000000000000	19.40654400000000	0.00000000000000	0.00000000000000	7.94988300000000	0.00000000000000	
11.49162400000000	-47.57648900000000	776.92773399999999	47.74235100000000	0.10779700000000	0.00000000000000	0.09676400000000	-3.92266800000000	111.95209100000000	10.48858700000000	0.38125000000000	0.00000000000000	-0.08069600000000	0.00000000000000	19.37254100000000	0.00000000000000	0.00000000000000	8.07866600000000	0.00000000000000	
11.49329500000000	-48.31239500000000	774.53262900000004	47.46872100000000	0.10705500000000	0.00000000000000	0.09667400000000	-3.51256800000000	116.78209900000000	10.54791400000000	0.38231900000000	0.00000000000000	-0.08081800000000	0.00000000000000	19.33916300000000	0.00000000000000	0.00000000000000	8.19763100000000	0.00000000000000	
11.49495100000000	-49.06573600000000	772.01232100000004	47.17378300000000	0.10630900000000	0.00000000000000	0.09658100000000	-3.07726400000000	121.73573399999999	10.59199000000000	0.38326300000000	0.00000000000000	-0.08095000000000	0.00000000000000	19.30635500000000	0.00000000000000	0.00000000000000	8.30868400000000	0.00000000000000	
11.49661900000000	-49.83587100000000	769.36450000000002	46.85738300000000	0.10555600000000	0.00000000000000	0.09648700000000	-2.61815100000000	126.82441100000000	10.62184600000000	0.38409100000000	0.00000000000000	-0.08109000000000	0.00000000000000	19.27405500000000	0.00000000000000	0.00000000000000	8.41267900000000	0.00000000000000	
11.49828900000000	-50.62205600000000	766.58687999999995	46.51940800000000	0.10479700000000	0.00000000000000	0.09639200000000	-2.13547100000000	132.05096900000001	10.63720000000000	0.38481300000000	0.00000000000000	-0.08124000000000	0.00000000000000	19.24219200000000	0.00000000000000	0.00000000000000	8.50952900000000	0.00000000000000	
11.49995500000000	-51.42345200000000	763.67720399999996	46.15978700000000	0.10403000000000	0.00000000000000	0.09629400000000	-1.62853900000000	137.41088600000000	10.63668100000000	0.38543400000000	0.00000000000000	-0.08139700000000	0.00000000000000	19.21068600000000	0.00000000000000	0.00000000000000	8.59835800000000	0.00000000000000	
11.50162000000000	-52.23911800000000	760.63324799999998	45.77849500000000	0.10325700000000	0.00000000000000	0.09619500000000	-1.09600300000000	142.89381000000000	10.61809700000000	0.38596100000000	0.00000000000000	-0.08156200000000	0.00000000000000	19.17945100000000	0.00000000000000	0.00000000000000	8.67769200000000	0.00000000000000	
11.50329300000000	-53.06801500000000	757.45282599999996	45.37554900000000	0.10247500000000	0.00000000000000	0.09609500000000	-0.53610600000000	148.48520099999999	10.57871900000000	0.38640200000000	0.00000000000000	-0.08173300000000	0.00000000000000	19.14839100000000	0.00000000000000	0.00000000000000	8.74565800000000	0.00000000000000	
11.50495500000000	-53.90900500000000	754.13379499999996	44.95101400000000	0.10168500000000	0.00000000000000	0.09599200000000	0.05306500000000	154.16797299999999	10.51554500000000	0.38676100000000	0.00000000000000	-0.08191200000000	0.00000000000000	19.11740100000000	0.00000000000000	0.00000000000000	8.80017900000000	0.00000000000000	
11.50661900000000	-54.76085100000000	750.67406000000005	44.50500000000000	0.10088700000000	0.00000000000000	0.09588900000000	0.67336400000000	159.92398800000001	10.42554100000000	0.38704500000000	0.00000000000000	-0.08209600000000	0.00000000000000	19.08637000000000	0.00000000000000	0.00000000000000	8.83915100000000	0.00000000000000	
